<?xml version="1.0" encoding="utf-8"?>
<!-- Generator: Adobe Illustrator 28.2.0, SVG Export Plug-In . SVG Version: 6.00 Build 0)  -->
<svg version="1.1" id="Layer_1" xmlns="http://www.w3.org/2000/svg" xmlns:xlink="http://www.w3.org/1999/xlink" x="0px" y="0px"
	 viewBox="0 0 362 362" style="enable-background:new 0 0 362 362;" xml:space="preserve">
<style type="text/css">
	.st0{fill:#FFFFFF;}
	.st1{opacity:0.5;fill:#D6D4D1;enable-background:new    ;}
	.st2{fill:none;stroke:#000000;stroke-width:2;stroke-miterlimit:10;}
</style>
<g>
	<path class="st0" d="M313.7,29.5c10.4,0,18.8,8.4,18.8,18.8v265.4c0,10.4-8.4,18.8-18.8,18.8H48.3c-10.4,0-18.8-8.4-18.8-18.8V48.3
		c0-10.4,8.4-18.8,18.8-18.8H313.7 M313.7,9.5H48.3C26.9,9.5,9.5,26.9,9.5,48.3v265.4c0,21.4,17.4,38.8,38.8,38.8h265.4
		c21.4,0,38.8-17.4,38.8-38.8V48.3C352.5,26.9,335.1,9.5,313.7,9.5L313.7,9.5z"/>
</g>
<g>
	<path class="st1" d="M48.3,337.5c-13.1,0-23.8-10.7-23.8-23.8V48.3c0-13.1,10.7-23.8,23.8-23.8h265.4c13.1,0,23.8,10.7,23.8,23.8
		v265.4c0,13.1-10.7,23.8-23.8,23.8H48.3z"/>
	<path d="M313.7,29.5c10.4,0,18.8,8.4,18.8,18.8v265.4c0,10.4-8.4,18.8-18.8,18.8H48.3c-10.4,0-18.8-8.4-18.8-18.8V48.3
		c0-10.4,8.4-18.8,18.8-18.8H313.7 M313.7,19.5H48.3c-15.9,0-28.8,12.9-28.8,28.8v265.4c0,15.9,12.9,28.8,28.8,28.8h265.4
		c15.9,0,28.8-12.9,28.8-28.8V48.3C342.5,32.4,329.6,19.5,313.7,19.5L313.7,19.5z"/>
</g>
<line class="st2" x1="130.5" y1="29.5" x2="130.5" y2="332.5"/>
<line class="st2" x1="231.5" y1="29.5" x2="231.5" y2="332.5"/>
<line class="st2" x1="29.5" y1="231.5" x2="332.5" y2="231.5"/>
<line class="st2" x1="29.5" y1="130.5" x2="332.5" y2="130.5"/>
</svg>
