<?xml version="1.0" encoding="utf-8"?>
<!-- Generator: Adobe Illustrator 27.9.0, SVG Export Plug-In . SVG Version: 6.00 Build 0)  -->
<svg version="1.1" id="Layer_1" xmlns="http://www.w3.org/2000/svg" xmlns:xlink="http://www.w3.org/1999/xlink" x="0px" y="0px"
	 viewBox="0 0 1024 1024" style="enable-background:new 0 0 1024 1024;" xml:space="preserve">
<style type="text/css">
	.st0{fill:#FFFFFF;stroke:#FFFFFF;stroke-width:40;stroke-miterlimit:10;}
	.st1{fill:#FF3833;}
	.st2{fill:#E87E7E;}
	.st3{fill:#E20736;}
</style>
<path d="M949.5,436.5c-3.4-3.4-7.6-5.8-12.2-7.1c-4.6-1.3-9.4-1.3-14-0.1V96.2H775.9c0.6-5.3-0.8-10.6-3.8-14.9
	c-3-4.3-7.5-7.4-12.5-8.5c-5.1-1.2-10.4-0.4-14.9,2.2c-4.5,2.6-8,6.8-9.6,11.9l-3.1,9.4H407.6c0-4.3-0.9-8.5-2.7-12.4
	c-1.8-3.9-4.4-7.3-7.6-10c-4.9-4.3-11.2-6.8-17.7-6.9c-6.5-0.1-12.8,2.1-18,6.2l-29.8,23.1H118.3V258l-43.4,33
	c-2.4,1.6-4.4,3.7-6,6.2c-1.6,2.5-2.6,5.2-3.1,8.1c-0.5,2.9-0.4,5.8,0.2,8.7c0.7,2.9,1.9,5.5,3.6,7.9c1.7,2.4,3.8,4.3,6.3,5.8
	c2.5,1.5,5.2,2.4,8,2.8c2.8,0.4,5.7,0.1,8.5-0.7c2.7-0.8,5.3-2.2,7.5-4.1l18.4-14.4v388.3l-28.1,68.6c-2.6,5.3-3.6,11.4-2.7,17.3
	c0.9,5.9,3.5,11.4,7.5,15.7c2.9,3.2,6.5,5.7,10.6,7.3c4,1.6,8.3,2.2,12.6,1.8v111.4h347.2l-0.8,2.6v3.6c-0.5,6.5,1.1,13.1,4.7,18.5
	c3.6,5.4,8.8,9.5,15,11.4c6.1,1.9,12.7,1.7,18.6-0.7c5.9-2.4,10.9-6.8,14.1-12.5l20.5-22.2h385.3V506.2l30.9-33.3l1.5-3.9
	c2.4-5.4,3.2-11.4,2.2-17.2C956.3,446,953.6,440.7,949.5,436.5L949.5,436.5z"/>
<path d="M949.5,436.5c-3.4-3.4-7.6-5.8-12.2-7.1c-4.6-1.3-9.4-1.3-14-0.1V96.2H775.9c0.6-5.3-0.8-10.6-3.8-14.9
	c-3-4.3-7.5-7.4-12.5-8.5c-5.1-1.2-10.4-0.4-14.9,2.2c-4.5,2.6-8,6.8-9.6,11.9l-3.1,9.4H407.6c0-4.3-0.9-8.5-2.7-12.4
	c-1.8-3.9-4.4-7.3-7.6-10c-4.9-4.3-11.2-6.8-17.7-6.9c-6.5-0.1-12.8,2.1-18,6.2l-29.8,23.1H118.3V258l-43.4,33
	c-2.4,1.6-4.4,3.7-6,6.2c-1.6,2.5-2.6,5.2-3.1,8.1c-0.5,2.9-0.4,5.8,0.2,8.7c0.7,2.9,1.9,5.5,3.6,7.9c1.7,2.4,3.8,4.3,6.3,5.8
	c2.5,1.5,5.2,2.4,8,2.8c2.8,0.4,5.7,0.1,8.5-0.7c2.7-0.8,5.3-2.2,7.5-4.1l18.4-14.4v388.3l-28.1,68.6c-2.6,5.3-3.6,11.4-2.7,17.3
	c0.9,5.9,3.5,11.4,7.5,15.7c2.9,3.2,6.5,5.7,10.6,7.3c4,1.6,8.3,2.2,12.6,1.8v111.4h347.2l-0.8,2.6v3.6c-0.5,6.5,1.1,13.1,4.7,18.5
	c3.6,5.4,8.8,9.5,15,11.4c6.1,1.9,12.7,1.7,18.6-0.7c5.9-2.4,10.9-6.8,14.1-12.5l20.5-22.2h385.3V506.2l30.9-33.3l1.5-3.9
	c2.4-5.4,3.2-11.4,2.2-17.2C956.3,446,953.6,440.7,949.5,436.5L949.5,436.5z"/>
<path d="M949.5,436.5c-3.4-3.4-7.6-5.8-12.2-7.1c-4.6-1.3-9.4-1.3-14-0.1V96.2H775.9c0.6-5.3-0.8-10.6-3.8-14.9
	c-3-4.3-7.5-7.4-12.5-8.5c-5.1-1.2-10.4-0.4-14.9,2.2c-4.5,2.6-8,6.8-9.6,11.9l-3.1,9.4H407.6c0-4.3-0.9-8.5-2.7-12.4
	c-1.8-3.9-4.4-7.3-7.6-10c-4.9-4.3-11.2-6.8-17.7-6.9c-6.5-0.1-12.8,2.1-18,6.2l-29.8,23.1H118.3V258l-43.4,33
	c-2.4,1.6-4.4,3.7-6,6.2c-1.6,2.5-2.6,5.2-3.1,8.1c-0.5,2.9-0.4,5.8,0.2,8.7c0.7,2.9,1.9,5.5,3.6,7.9c1.7,2.4,3.8,4.3,6.3,5.8
	c2.5,1.5,5.2,2.4,8,2.8c2.8,0.4,5.7,0.1,8.5-0.7c2.7-0.8,5.3-2.2,7.5-4.1l18.4-14.4v388.3l-28.1,68.6c-2.6,5.3-3.6,11.4-2.7,17.3
	c0.9,5.9,3.5,11.4,7.5,15.7c2.9,3.2,6.5,5.7,10.6,7.3c4,1.6,8.3,2.2,12.6,1.8v111.4h347.2l-0.8,2.6v3.6c-0.5,6.5,1.1,13.1,4.7,18.5
	c3.6,5.4,8.8,9.5,15,11.4c6.1,1.9,12.7,1.7,18.6-0.7c5.9-2.4,10.9-6.8,14.1-12.5l20.5-22.2h385.3V506.2l30.9-33.3l1.5-3.9
	c2.4-5.4,3.2-11.4,2.2-17.2C956.3,446,953.6,440.7,949.5,436.5L949.5,436.5z"/>
<path class="st0" d="M949.5,436.5c-3.4-3.4-7.6-5.8-12.2-7.1c-4.6-1.3-9.4-1.3-14-0.1V96.2H775.9c0.6-5.3-0.8-10.6-3.8-14.9
	c-3-4.3-7.5-7.4-12.5-8.5c-5.1-1.2-10.4-0.4-14.9,2.2c-4.5,2.6-8,6.8-9.6,11.9l-3.1,9.4H407.6c0-4.3-0.9-8.5-2.7-12.4
	c-1.8-3.9-4.4-7.3-7.6-10c-4.9-4.3-11.2-6.8-17.7-6.9c-6.5-0.1-12.8,2.1-18,6.2l-29.8,23.1H118.3V258l-43.4,33
	c-2.4,1.6-4.4,3.7-6,6.2c-1.6,2.5-2.6,5.2-3.1,8.1c-0.5,2.9-0.4,5.8,0.2,8.7c0.7,2.9,1.9,5.5,3.6,7.9c1.7,2.4,3.8,4.3,6.3,5.8
	c2.5,1.5,5.2,2.4,8,2.8c2.8,0.4,5.7,0.1,8.5-0.7c2.7-0.8,5.3-2.2,7.5-4.1l18.4-14.4v388.3l-28.1,68.6c-2.6,5.3-3.6,11.4-2.7,17.3
	c0.9,5.9,3.5,11.4,7.5,15.7c2.9,3.2,6.5,5.7,10.6,7.3c4,1.6,8.3,2.2,12.6,1.8v111.4h347.2l-0.8,2.6v3.6c-0.5,6.5,1.1,13.1,4.7,18.5
	c3.6,5.4,8.8,9.5,15,11.4c6.1,1.9,12.7,1.7,18.6-0.7c5.9-2.4,10.9-6.8,14.1-12.5l20.5-22.2h385.3V506.2l30.9-33.3l1.5-3.9
	c2.4-5.4,3.2-11.4,2.2-17.2C956.3,446,953.6,440.7,949.5,436.5L949.5,436.5z"/>
<path class="st1" d="M338.1,117.8L139.3,268.9v435.3l238.9-586.4H338.1z"/>
<path class="st1" d="M901.6,900.3V486.4L526.2,900.3H901.6z"/>
<path class="st2" d="M901.6,441.5V117.8H747.2L614.4,563.2L901.6,441.5z"/>
<path class="st2" d="M139.3,779v121.3h355.2l109.6-339.6L139.3,779z"/>
<path class="st3" d="M747.2,117.8h-369L139.3,704.2V779l464.9-218.3L747.2,117.8z"/>
<path d="M949.5,436.5c-3.4-3.4-7.6-5.8-12.2-7.1c-4.6-1.3-9.4-1.3-14-0.1V96.2H775.9c0.6-5.3-0.8-10.6-3.8-14.9
	c-3-4.3-7.5-7.4-12.5-8.5c-5.1-1.2-10.4-0.4-14.9,2.2c-4.5,2.6-8,6.8-9.6,11.9l-3.1,9.4H407.6c0-4.3-0.9-8.5-2.7-12.4
	c-1.8-3.9-4.4-7.3-7.6-10c-4.9-4.3-11.2-6.8-17.7-6.9c-6.5-0.1-12.8,2.1-18,6.2l-29.8,23.1H118.3V258l-43.4,33
	c-2.4,1.6-4.4,3.7-6,6.2c-1.6,2.5-2.6,5.2-3.1,8.1c-0.5,2.9-0.4,5.8,0.2,8.7c0.7,2.9,1.9,5.5,3.6,7.9c1.7,2.4,3.8,4.3,6.3,5.8
	c2.5,1.5,5.2,2.4,8,2.8c2.8,0.4,5.7,0.1,8.5-0.7c2.7-0.8,5.3-2.2,7.5-4.1l18.4-14.4v388.3l-28.1,68.6c-2.6,5.3-3.6,11.4-2.7,17.3
	c0.9,5.9,3.5,11.4,7.5,15.7c2.9,3.2,6.5,5.7,10.6,7.3c4,1.6,8.3,2.2,12.6,1.8v111.4h347.2l-0.8,2.6v3.6c-0.5,6.5,1.1,13.1,4.7,18.5
	c3.6,5.4,8.8,9.5,15,11.4c6.1,1.9,12.7,1.7,18.6-0.7c5.9-2.4,10.9-6.8,14.1-12.5l20.5-22.2h385.3V506.2l30.9-33.3l1.5-3.9
	c2.4-5.4,3.2-11.4,2.2-17.2C956.3,446,953.6,440.7,949.5,436.5L949.5,436.5z M881.1,446.3L629.9,551.5L763,139.4h118.2V446.3z
	 M875.2,495.4L526,871.5l86.6-266.1L875.2,495.4z M578.1,573L160.4,747.7v-39.2l231.9-569.2H718L578.1,573z M160.4,139.4h113.8
	l-113.8,86.5V139.4z M160.4,279.7L345,139.4h1.7L160.4,596.6V279.7z M160.4,878.7v-84.3l400.3-166.9l-81.4,251.1H160.4z
	 M880.6,878.7H577.4l303.2-326.9V878.7z"/>
</svg>
